<svg width="50" height="50" viewBox="0 0 50 50" fill="none" xmlns="http://www.w3.org/2000/svg">
<path d="M21.4736 15.0415C22.8112 11.7067 23.4801 10.0394 24.5667 9.80827C24.8524 9.7475 25.1477 9.7475 25.4334 9.80827C26.52 10.0394 27.1889 11.7067 28.5265 15.0415C29.2872 16.9379 29.6676 17.8861 30.3793 18.5311C30.5789 18.712 30.7956 18.8731 31.0263 19.0121C31.8489 19.5079 32.8757 19.5999 34.9295 19.7838C38.406 20.0952 40.1443 20.2508 40.6752 21.242C40.7851 21.4472 40.8599 21.6695 40.8963 21.8995C41.0723 23.01 39.7944 24.1726 37.2386 26.4978L36.5288 27.1435C35.334 28.2306 34.7365 28.7742 34.3909 29.4525C34.1837 29.8594 34.0447 30.2977 33.9795 30.7497C33.871 31.5032 34.0459 32.2917 34.3958 33.8688L34.5208 34.4322C35.1483 37.2604 35.4621 38.6745 35.0704 39.3696C34.7186 39.9939 34.0706 40.3936 33.3548 40.4278C32.5579 40.4659 31.435 39.5509 29.1892 37.7209C27.7096 36.5153 26.9698 35.9124 26.1485 35.6769C25.398 35.4617 24.6021 35.4617 23.8516 35.6769C23.0303 35.9124 22.2905 36.5153 20.8109 37.7209C18.5651 39.5509 17.4422 40.4659 16.6453 40.4278C15.9295 40.3936 15.2815 39.9939 14.9297 39.3696C14.538 38.6745 14.8518 37.2604 15.4793 34.4322L15.6043 33.8688C15.9542 32.2917 16.1291 31.5032 16.0206 30.7497C15.9554 30.2977 15.8164 29.8594 15.6091 29.4525C15.2636 28.7742 14.6661 28.2306 13.4712 27.1435L12.7615 26.4978C10.2057 24.1726 8.9278 23.01 9.10378 21.8995C9.14023 21.6695 9.21498 21.4472 9.32492 21.242C9.85575 20.2508 11.594 20.0952 15.0706 19.7838C17.1244 19.5999 18.1512 19.5079 18.9738 19.0121C19.2045 18.8731 19.4212 18.712 19.6208 18.5311C20.3325 17.8861 20.7129 16.9379 21.4736 15.0415Z" stroke="#858585" stroke-opacity="0.45"/>
</svg>
